<svg id="Layer_2" data-name="Layer 2" xmlns="http://www.w3.org/2000/svg" width="22.144" height="23.99" viewBox="0 0 22.144 23.99">
  <path id="Path_2" data-name="Path 2" d="M15.691,28.613A3.691,3.691,0,0,1,12,24.923.923.923,0,0,1,12.923,24h5.536a.923.923,0,0,1,.923.923A3.691,3.691,0,0,1,15.691,28.613Zm-1.6-2.768a1.845,1.845,0,0,0,3.192,0Z" transform="translate(-4.619 -4.624)"/>
  <path id="Path_3" data-name="Path 3" d="M17.613,6.691H13.923A.923.923,0,0,1,13,5.768a2.768,2.768,0,1,1,5.536,0A.923.923,0,0,1,17.613,6.691ZM15.768,4.845Z" transform="translate(-4.696 -3)"/>
  <path id="Path_4" data-name="Path 4" d="M25.222,24.376H4.923A.923.923,0,0,1,4,23.454a6.459,6.459,0,0,1,2.768-5.305V13.3A8.3,8.3,0,0,1,15.017,5h.1a8.3,8.3,0,0,1,8.3,8.3v4.844a6.459,6.459,0,0,1,2.722,5.305h0A.923.923,0,0,1,25.222,24.376ZM5.938,22.531H24.207a4.613,4.613,0,0,0-2.214-3.073.923.923,0,0,1-.461-.8V13.3a6.459,6.459,0,1,0-12.918,0v5.352a.923.923,0,0,1-.461.8,4.613,4.613,0,0,0-2.214,3.073Z" transform="translate(-4 -3.155)"/>
</svg>
