<svg xmlns="http://www.w3.org/2000/svg" width="29.978" height="26.645" viewBox="0 0 29.978 26.645">
  <path id="Path_5" data-name="Path 5" d="M15.311,14.453a7.583,7.583,0,0,1,2.576,1.285l8.405-2.8a.831.831,0,0,0,.526-1.051l-3.143-9.43a.831.831,0,0,0-1.051-.526l-3.18,1.062,1.723,5.173L18.007,9.212,16.284,4.039,13.079,5.105a.831.831,0,0,0-.526,1.051l2.758,8.3Zm14.624,2.535L29.4,15.4a.831.831,0,0,0-1.051-.526L17.242,18.585a4.973,4.973,0,0,0-3.825-1.926L8.244,1.14A1.668,1.668,0,0,0,6.662,0H.833A.835.835,0,0,0,0,.833V2.5a.835.835,0,0,0,.833.833H5.459l4.8,14.4a4.961,4.961,0,0,0-1.874,4.71,4.994,4.994,0,0,0,9.925-.7l11.1-3.706A.833.833,0,0,0,29.936,16.987ZM13.323,24.148a2.5,2.5,0,1,1,2.5-2.5A2.5,2.5,0,0,1,13.323,24.148Z" fill="#283593"/>
</svg>
