<?xml version="1.0" encoding="utf-8"?>
<!-- Generator: Adobe Illustrator 27.2.0, SVG Export Plug-In . SVG Version: 6.00 Build 0)  -->
<svg version="1.1" id="Layer_1" xmlns="http://www.w3.org/2000/svg" xmlns:xlink="http://www.w3.org/1999/xlink" x="0px" y="0px"
	 viewBox="0 0 466.7 460.3" style="enable-background:new 0 0 466.7 460.3;" xml:space="preserve">
<style type="text/css">
	.st0{fill:#B31106;}
</style>
<g>
	<path class="st0" d="M232.4,5.6c-123.7,0-224,100.3-224,224s100.3,224,224,224s224-100.3,224-224S356.1,5.6,232.4,5.6z
		 M340.7,305.1c1.5,1.5,2.3,3.5,2.3,5.6s-0.8,4.2-2.3,5.6L319.1,338c-1.6,1.6-3.6,2.3-5.6,2.3s-4.1-0.8-5.6-2.3l-75.5-75.6
		L157,338.1c-1.5,1.6-3.6,2.3-5.6,2.3s-4.1-0.8-5.6-2.3l-21.6-21.7c-1.5-1.5-2.3-3.5-2.3-5.6s0.8-4.2,2.3-5.6l75.7-76l-75.9-75
		c-3.1-3.1-3.1-8.2,0-11.3l21.6-21.7c1.5-1.5,3.5-2.3,5.6-2.3s4.1,0.8,5.6,2.3l75.7,74.7l75.7-74.7c1.5-1.5,3.5-2.3,5.6-2.3
		s4.1,0.8,5.6,2.3l21.6,21.7c3.1,3.1,3.1,8.2,0,11.3l-75.9,75L340.7,305.1z"/>
</g>
</svg>
