<svg id="Group_242" data-name="Group 242" xmlns="http://www.w3.org/2000/svg" width="15.382" height="15.382" viewBox="0 0 15.382 15.382">
  <path id="Path_567" data-name="Path 567" d="M0,0H15.382V15.382H0Z" fill="none"/>
  <path id="Path_568" data-name="Path 568" d="M8.409,14.818a6.409,6.409,0,1,1,6.409-6.409A6.409,6.409,0,0,1,8.409,14.818ZM6.166,9.691v1.282h1.6v1.282H9.05V10.973h.641a1.6,1.6,0,1,0,0-3.2H7.127a.32.32,0,1,1,0-.641h3.525V5.845H9.05V4.564H7.768V5.845H7.127a1.6,1.6,0,0,0,0,3.2H9.691a.32.32,0,0,1,0,.641Z" transform="translate(-0.718 -0.718)" fill="#707070"/>
</svg>
