<svg xmlns="http://www.w3.org/2000/svg" width="24.328" height="19.976" viewBox="0 0 24.328 19.976">
  <g id="_79-users" data-name="79-users" transform="translate(1 1.113)">
    <ellipse id="Ellipse_7" data-name="Ellipse 7" cx="4" cy="3.5" rx="4" ry="3.5" transform="translate(6.805 3.107)" fill="none" stroke="#fff" stroke-linecap="round" stroke-linejoin="round" stroke-width="2"/>
    <path id="Path_479" data-name="Path 479" d="M19.42,26.21A5.21,5.21,0,1,0,9,26.21Z" transform="translate(-3.046 -8.347)" fill="none" stroke="#fff" stroke-linecap="round" stroke-linejoin="round" stroke-width="2"/>
    <path id="Path_480" data-name="Path 480" d="M22.977,11.443A3.721,3.721,0,1,0,20,5.488" transform="translate(-5.859 -4)" fill="none" stroke="#fff" stroke-linecap="round" stroke-linejoin="round" stroke-width="2"/>
    <path id="Path_481" data-name="Path 481" d="M24.744,22.21H29.21A5.21,5.21,0,0,0,24,17" transform="translate(-6.882 -7.324)" fill="none" stroke="#fff" stroke-linecap="round" stroke-linejoin="round" stroke-width="2"/>
    <path id="Path_482" data-name="Path 482" d="M9.7,5.488a3.721,3.721,0,1,0-2.977,5.954" transform="translate(-1.511 -4)" fill="none" stroke="#fff" stroke-linecap="round" stroke-linejoin="round" stroke-width="2"/>
    <path id="Path_483" data-name="Path 483" d="M6.21,17A5.21,5.21,0,0,0,1,22.21H5.466" transform="translate(-1 -7.324)" fill="none" stroke="#fff" stroke-linecap="round" stroke-linejoin="round" stroke-width="2"/>
  </g>
</svg>
