<svg xmlns="http://www.w3.org/2000/svg" width="22.077" height="19.627" viewBox="0 0 22.077 19.627">
  <path id="Path_544" data-name="Path 544" d="M15.419,13.147l1.226-1.226a.308.308,0,0,1,.525.218v5.573a1.84,1.84,0,0,1-1.84,1.84H1.84A1.84,1.84,0,0,1,0,17.712V4.221a1.84,1.84,0,0,1,1.84-1.84H12.322a.309.309,0,0,1,.218.525L11.314,4.132a.3.3,0,0,1-.218.088H1.84V17.712H15.331v-4.35A.3.3,0,0,1,15.419,13.147Zm6-7.735L11.357,15.478l-3.465.383a1.583,1.583,0,0,1-1.748-1.748l.383-3.465L16.592.583a2.237,2.237,0,0,1,3.17,0l1.656,1.656a2.245,2.245,0,0,1,0,3.174ZM17.635,6.6,15.408,4.37,8.287,11.5,8.007,14l2.5-.28Zm2.484-3.055L18.463,1.886a.4.4,0,0,0-.567,0L16.711,3.071,18.938,5.3l1.184-1.184A.408.408,0,0,0,20.118,3.542Z" transform="translate(0 0.075)" fill="teal"/>
</svg>
