<svg xmlns="http://www.w3.org/2000/svg" width="23.24" height="28.603" viewBox="0 0 23.24 28.603">
  <g id="_19-Document" data-name="19-Document" transform="translate(-3 0)">
    <path id="Path_9" data-name="Path 9" d="M25.981,5.622,20.618.259A.894.894,0,0,0,19.983,0H5.682A2.682,2.682,0,0,0,3,2.682v23.24A2.682,2.682,0,0,0,5.682,28.6H23.558a2.682,2.682,0,0,0,2.682-2.682V6.257a.894.894,0,0,0-.259-.635Zm-1.528,20.3a.894.894,0,0,1-.894.894H5.682a.894.894,0,0,1-.894-.894V2.682a.894.894,0,0,1,.894-.894H19.089V5.363a1.788,1.788,0,0,0,1.788,1.788h3.575Z" transform="translate(0 0)" fill="#bfd3db"/>
    <rect id="Rectangle_14" data-name="Rectangle 14" width="16" height="3" transform="translate(6.62 17.301)" fill="#bfd3db"/>
    <rect id="Rectangle_15" data-name="Rectangle 15" width="16" height="2" transform="translate(6.62 22.301)" fill="#bfd3db"/>
    <path id="Path_10" data-name="Path 10" d="M7,11.894v3.575a.894.894,0,0,0,.894.894H22.2a.894.894,0,0,0,.894-.894V11.894A.894.894,0,0,0,22.2,11H7.894A.894.894,0,0,0,7,11.894Zm1.788.894H21.3v1.788H8.788Z" transform="translate(-0.425 -1.168)" fill="#bfd3db"/>
  </g>
</svg>
