<svg xmlns="http://www.w3.org/2000/svg" width="28.815" height="21.67" viewBox="0 0 28.815 21.67">
  <g id="_x31_12-gmail_x2C__email_x2C__mail" transform="translate(-17.397 -76.565)">
    <g id="Group_218" data-name="Group 218" transform="translate(17.397 76.565)">
      <g id="Group_217" data-name="Group 217" transform="translate(0 0)">
        <g id="Group_216" data-name="Group 216">
          <rect id="Rectangle_164" data-name="Rectangle 164" width="21.612" height="21.67" transform="translate(3.602)" fill="#f1f5f7"/>
          <path id="Path_539" data-name="Path 539" d="M256,164.031l10.805,8.556V155.7Zm0,0" transform="translate(-241.594 -150.917)" fill="#dce6ea"/>
          <path id="Path_540" data-name="Path 540" d="M43.511,76.565h-.9L31.8,85.121,21,76.565h-.9a2.706,2.706,0,0,0-2.7,2.709V95.526a2.706,2.706,0,0,0,2.7,2.709H21V81.343L31.8,89.677,42.61,81.341V98.235h.9a2.706,2.706,0,0,0,2.7-2.709V79.274a2.706,2.706,0,0,0-2.7-2.709Zm0,0" transform="translate(-17.397 -76.565)" fill="#f84437"/>
        </g>
      </g>
    </g>
  </g>
</svg>
