<svg xmlns="http://www.w3.org/2000/svg" width="24" height="24" viewBox="0 0 24 24">
  <g id="Group_277" data-name="Group 277" transform="translate(-1.003 -1.003)">
    <rect id="Rectangle_203" data-name="Rectangle 203" width="24" height="24" transform="translate(1.003 1.003)" fill="none"/>
    <path id="Path_583" data-name="Path 583" d="M51.256,36.815V26.926a.812.812,0,0,0-.411-.7L42.019,21.26a.782.782,0,0,0-.782,0l-8.825,4.964a.812.812,0,0,0-.411.7v9.889a.812.812,0,0,0,.411.7l8.825,4.964a.782.782,0,0,0,.782,0l8.825-4.964A.812.812,0,0,0,51.256,36.815Z" transform="translate(-28.625 -18.868)" fill="none" stroke="#fff" stroke-linecap="round" stroke-linejoin="round" stroke-width="2"/>
    <path id="Path_584" data-name="Path 584" d="M89.728,57.581V52.365L80,47" transform="translate(-71.811 -42.121)" fill="none" stroke="#fff" stroke-linecap="round" stroke-linejoin="round" stroke-width="2"/>
    <path id="Path_585" data-name="Path 585" d="M52.135,74.6l-9.427,5.355L33.1,74.6" transform="translate(-29.615 -66.953)" fill="none" stroke="#fff" stroke-linecap="round" stroke-linejoin="round" stroke-width="2"/>
    <line id="Line_10" data-name="Line 10" x1="0.09" y2="10.711" transform="translate(13.003 13.003)" fill="none" stroke="#fff" stroke-linecap="round" stroke-linejoin="round" stroke-width="2"/>
  </g>
</svg>
