<svg xmlns="http://www.w3.org/2000/svg" width="22.414" height="22" viewBox="0 0 22.414 22">
  <g id="Layer_2" transform="translate(-0.586 -1)">
    <g id="Group_278" data-name="Group 278" transform="translate(2 2)">
      <line id="Line_11" data-name="Line 11" y2="1.558" transform="translate(10 5.326)" fill="none" stroke="#fff" stroke-linecap="round" stroke-linejoin="round" stroke-miterlimit="10" stroke-width="2"/>
      <line id="Line_12" data-name="Line 12" y2="1.558" transform="translate(10 13.116)" fill="none" stroke="#fff" stroke-linecap="round" stroke-linejoin="round" stroke-miterlimit="10" stroke-width="2"/>
      <path id="Path_586" data-name="Path 586" d="M13.714,17.714h2.143a1.429,1.429,0,0,0,0-2.857H14.429a1.429,1.429,0,1,1,0-2.857h2.143" transform="translate(-5.143 -4.857)" fill="none" stroke="#fff" stroke-linecap="round" stroke-linejoin="round" stroke-miterlimit="10" stroke-width="2"/>
      <path id="Path_587" data-name="Path 587" d="M13.143,6A7.143,7.143,0,1,1,6,13.143V11" transform="translate(-3.143 -3.143)" fill="none" stroke="#fff" stroke-linecap="round" stroke-linejoin="round" stroke-miterlimit="10" stroke-width="2"/>
      <path id="Path_588" data-name="Path 588" d="M7.714,15.857,4.857,13,2,15.857" transform="translate(-2 -5.143)" fill="none" stroke="#fff" stroke-linecap="round" stroke-linejoin="round" stroke-miterlimit="10" stroke-width="2"/>
      <path id="Path_589" data-name="Path 589" d="M16,2a10,10,0,0,1,0,20" transform="translate(-6 -2)" fill="none" stroke="#fff" stroke-linecap="round" stroke-linejoin="round" stroke-miterlimit="10" stroke-width="2"/>
    </g>
  </g>
</svg>
