<svg id="Layer_26" data-name="Layer 26" xmlns="http://www.w3.org/2000/svg" width="23.522" height="20.386" viewBox="0 0 23.522 20.386">
  <path id="Path_484" data-name="Path 484" d="M12.92,23.032A3.92,3.92,0,0,1,9,19.111V17.684a.784.784,0,0,1,.384-.674L12.23,15.3a.784.784,0,0,1,.784,1.349l-2.446,1.482v.98a2.352,2.352,0,0,0,2.352,2.352.784.784,0,1,1,0,1.568Z" transform="translate(-2.727 -5.641)" fill="#fff"/>
  <path id="Path_485" data-name="Path 485" d="M5.7,23.032H4.92A3.92,3.92,0,0,1,1,19.111V17.684a.784.784,0,0,1,.384-.674L4.23,15.3a.784.784,0,0,1,.784,1.349L2.568,18.131v.98A2.352,2.352,0,0,0,4.92,21.464H5.7a.784.784,0,1,1,0,1.568Z" transform="translate(-1 -5.641)" fill="#fff"/>
  <path id="Path_486" data-name="Path 486" d="M8.7,12.409A4.7,4.7,0,1,1,8.7,3a.784.784,0,0,1,0,1.568,3.136,3.136,0,1,0,0,6.273.784.784,0,0,1,0,1.568Z" transform="translate(-1.648 -3)" fill="#fff"/>
  <path id="Path_487" data-name="Path 487" d="M16.7,12.409a4.7,4.7,0,1,1,4.7-4.7A4.7,4.7,0,0,1,16.7,12.409Zm0-7.841A3.136,3.136,0,1,0,19.841,7.7,3.136,3.136,0,0,0,16.7,4.568Z" transform="translate(-3.375 -3)" fill="#fff"/>
  <path id="Path_488" data-name="Path 488" d="M22.489,25.977a5.489,5.489,0,1,1,5.489-5.489,5.489,5.489,0,0,1-5.489,5.489Zm0-9.409a3.92,3.92,0,1,0,3.92,3.92A3.92,3.92,0,0,0,22.489,16.568Z" transform="translate(-4.455 -5.591)" fill="#fff"/>
  <rect id="Rectangle_21" data-name="Rectangle 21" width="4.737" height="1.458" transform="translate(15.77 14.202)" fill="#fff"/>
  <rect id="Rectangle_22" data-name="Rectangle 22" width="1.458" height="4.737" transform="translate(17.227 12.38)" fill="#fff"/>
</svg>
