<?xml version="1.0" encoding="UTF-8"?>
<svg id="Layer_1" data-name="Layer 1" xmlns="http://www.w3.org/2000/svg" viewBox="0 0 20.97 21.54">
  <defs>
    <style>
      .cls-1 {
        fill: #46a928;
      }
    </style>
  </defs>
  <path class="cls-1" d="m10.4.72C4.88.72.4,5.2.4,10.72s4.48,10,10,10,10-4.48,10-10S15.92.72,10.4.72Zm4.71,7.71l-5,5c-.39.39-1.02.39-1.41,0,0,0,0,0,0,0l-2-2c-.39-.39-.39-1.03,0-1.42s1.03-.39,1.42,0l1.29,1.3,4.29-4.3c.39-.39,1.03-.39,1.42,0,.39.39.39,1.03,0,1.42h0Z"/>
</svg>