<svg xmlns="http://www.w3.org/2000/svg" width="12.718" height="12.718" viewBox="0 0 12.718 12.718">
  <path id="Path_569" data-name="Path 569" d="M11.128,1.59h-.645A4.767,4.767,0,1,1,1.59,3.974,4.733,4.733,0,0,1,2.235,1.59H1.59A1.592,1.592,0,0,0,0,3.18v7.949a1.592,1.592,0,0,0,1.59,1.59h9.539a1.592,1.592,0,0,0,1.59-1.59V3.18A1.592,1.592,0,0,0,11.128,1.59ZM6.359,7.949A3.974,3.974,0,1,0,2.385,3.974,3.974,3.974,0,0,0,6.359,7.949ZM6.352,4.175l.834-1.946a.4.4,0,0,1,.731.313L7.081,4.492a.989.989,0,1,1-.729-.317Z" fill="#707070"/>
</svg>
